PathFileType	4	(X/Y/Z)	/Users/itak/Documents/Research/Walk-IL/dataset/trc/00128_00007.trc
DataRate	CameraRate	NumFrames	NumMarkers	Units	OrigDataRate	OrigDataStartFrame	OrigNumFrames
100.000000	100.000000	4	53	mm	100.000000	109	877
Frame#	Time	RPSI			LPSI			L3			STRN			T10			C7			CLAV			RBAK			LBAK			LSHO			LUPA			LAEL			LAOL			LWTS			LWPS			LFRA			LIFD			LHPS			LHTS			RSHO			RUPA			RAEL			RAOL			RWTS			RWPS			RFRA			RIFD			RHTS			RHPS			RBHD			LFHD			RFHD			LBHD			LHIP			RHIP			RASI			LASI			LKNE			LTHI			LANK			LTIP			LTOE			LMT1			LMT5			LHEE			RKNE			RTHI			RANK			RTIP			RTOE			RMT1			RMT5			RHEE			
		X1	Y1	Z1	X2	Y2	Z2	X3	Y3	Z3	X4	Y4	Z4	X5	Y5	Z5	X6	Y6	Z6	X7	Y7	Z7	X8	Y8	Z8	X9	Y9	Z9	X10	Y10	Z10	X11	Y11	Z11	X12	Y12	Z12	X13	Y13	Z13	X14	Y14	Z14	X15	Y15	Z15	X16	Y16	Z16	X17	Y17	Z17	X18	Y18	Z18	X19	Y19	Z19	X20	Y20	Z20	X21	Y21	Z21	X22	Y22	Z22	X23	Y23	Z23	X24	Y24	Z24	X25	Y25	Z25	X26	Y26	Z26	X27	Y27	Z27	X28	Y28	Z28	X29	Y29	Z29	X30	Y30	Z30	X31	Y31	Z31	X32	Y32	Z32	X33	Y33	Z33	X34	Y34	Z34	X35	Y35	Z35	X36	Y36	Z36	X37	Y37	Z37	X38	Y38	Z38	X39	Y39	Z39	X40	Y40	Z40	X41	Y41	Z41	X42	Y42	Z42	X43	Y43	Z43	X44	Y44	Z44	X45	Y45	Z45	X46	Y46	Z46	X47	Y47	Z47	X48	Y48	Z48	X49	Y49	Z49	X50	Y50	Z50	X51	Y51	Z51	X52	Y52	Z52	X53	Y53	Z53	

110	1.09	143.9324798583984	1106.505615234375	1102.075073242188	120.4444198608398	1114.075317382812	1234.598022460938	137.2862701416016	1150.01171875	1174.075073242188	-105.0161437988281	1324.850830078125	1136.938110351562	150.3423767089844	1306.415893554688	1182.791259765625	74.89788055419922	1590.624145507812	1186.721435546875	-87.31162261962891	1463.457397460938	1143.68408203125	168.625732421875	1414.837646484375	1115.756469726562	63.25886917114258	1571.590087890625	1287.401611328125	-32.75001907348633	1548.710815429688	1338.893920898438	-11.41795825958252	1420.392456054688	1415.154541015625	-1.200631856918335	1199.921997070312	1435.477294921875	79.93942260742188	1199.39501953125	1400.699462890625	-40.51728439331055	930.33544921875	1365.903076171875	30.93434906005859	917.4833984375	1415.967895507812	-0.1536475270986557	1081.773559570312	1435.638305664062	-12.94885444641113	738.9064331054688	1343.592895507812	16.22197151184082	839.2628784179688	1410.463745117188	-44.5086784362793	839.0988159179688	1373.085327148438	61.81423950195312	1562.764526367188	997.40380859375	103.1618118286133	1492.478271484375	942.211181640625	165.8900146484375	1203.913818359375	941.3694458007812	149.4809112548828	1205.980346679688	1036.512817382812	62.47829055786133	941.4627685546875	929.2808837890625	145.3845825195312	936.0547485351562	924.3283081054688	158.6933441162109	1127.618530273438	925.1273803710938	61.05813217163086	747.0572509765625	952.6996459960938	51.37663269042969	829.5924072265625	920.82373046875	126.123908996582	831.8544311523438	915.4083862304688	40.48118591308594	1758.88037109375	1115.759033203125	-174.8380126953125	1796.431884765625	1137.536010742188	-108.1761322021484	1799.480834960938	1026.291137695312	-23.65398025512695	1760.058227539062	1233.680786132812	24.85946655273438	1017.294006347656	1330.278076171875	33.64259719848633	1007.131164550781	967.6868286132812	-53.99600219726562	1073.416259765625	1012.792541503906	-84.83011627197266	1070.0791015625	1277.748168945312	74.59597015380859	516.1512451171875	1296.403564453125	72.92362213134766	665.4943237304688	1324.076782226562	284.4172668457031	46.69608306884766	1287.30322265625	222.9788970947266	291.8907165527344	1324.126831054688	52.72168731689453	39.11400604248047	1224.499755859375	135.535888671875	43.2655029296875	1192.46826171875	158.5333709716797	42.07215881347656	1308.800170898438	355.5447082519531	49.45912170410156	1227.470092773438	-133.8668060302734	554.4358520507812	981.6902465820312	-38.39224624633789	812.59326171875	962.1146240234375	-232.1341094970703	39.85429000854492	1004.183044433594	-155.5030822753906	419.7901306152344	971.2300415039062	-440.50341796875	136.8210601806641	978.9080200195312	-409.9741516113281	106.6438064575195	1035.8388671875	-340.0734558105469	83.82628631591797	941.195556640625	-194.5595855712891	29.8096866607666	1067.88427734375	
111	1.1	138.0161743164062	1105.222045898438	1100.394287109375	113.870002746582	1112.880737304688	1232.7890625	130.9002838134766	1148.608764648438	1172.284423828125	-111.1343002319336	1323.34228515625	1134.063232421875	144.0325317382812	1305.032958984375	1181.014892578125	68.57249450683594	1589.235595703125	1184.527954101562	-93.44647216796875	1461.9365234375	1140.83984375	162.6030731201172	1413.419189453125	1114.018432617188	56.49016571044922	1570.200073242188	1285.174072265625	-39.72468948364258	1547.280151367188	1336.250854492188	-18.56111526489258	1418.999877929688	1412.638305664062	-8.378938674926758	1198.660278320312	1433.151977539062	72.82778167724609	1198.03076171875	1398.738159179688	-47.22572326660156	928.8103637695312	1363.869995117188	23.93188095092773	916.1431274414062	1414.225219726562	-7.278084278106689	1080.484008789062	1433.505859375	-19.50368499755859	737.3809814453125	1341.974243164062	9.309123992919922	837.9065551757812	1408.8056640625	-51.26686096191406	837.6439819335938	1371.172973632812	56.27116775512695	1561.299438476562	995.1647338867188	97.89996337890625	1491.004638671875	940.1815185546875	160.8503265380859	1202.518310546875	939.8134765625	143.7719573974609	1204.577392578125	1034.863647460938	57.73593902587891	939.9369506835938	927.1666870117188	140.6948852539062	934.6508178710938	922.5799560546875	153.8186492919922	1126.22119140625	923.52294921875	56.52562713623047	745.5317993164062	950.5030517578125	46.85232925415039	828.082275390625	918.5930786132812	121.5879135131836	830.4312133789062	913.486572265625	34.55084228515625	1757.422119140625	1113.446899414062	-180.8397979736328	1795.129638671875	1134.395629882812	-113.7168350219727	1798.12548828125	1023.390197753906	-30.0258617401123	1758.669555664062	1231.121215820312	18.1107120513916	1015.9306640625	1328.126586914062	28.58050155639648	1005.629638671875	965.445556640625	-59.41538238525391	1071.753784179688	1010.231018066406	-91.44368743896484	1068.516357421875	1275.075805664062	70.50582122802734	515.0546875	1294.772705078125	67.8841552734375	664.4512329101562	1322.373413085938	284.3572998046875	47.14801788330078	1287.181884765625	220.7750701904297	291.9910888671875	1323.49951171875	52.61890029907227	38.96095275878906	1224.416381835938	135.4993896484375	43.22203826904297	1192.464477539062	158.5084075927734	42.08681488037109	1308.7421875	355.5505981445312	50.4879150390625	1227.406982421875	-137.4315643310547	552.7784423828125	979.0242919921875	-42.46137237548828	810.5588989257812	959.2399291992188	-243.4975891113281	40.39397430419922	1000.988891601562	-160.5813446044922	418.6668701171875	968.5899047851562	-449.8083801269531	140.5003662109375	971.5411987304688	-420.9090881347656	110.0410537719727	1029.21923828125	-349.5513916015625	85.63542175292969	936.0236206054688	-207.4981536865234	29.41730499267578	1065.449096679688	
112	1.11	131.9540100097656	1103.931396484375	1098.619873046875	107.1096343994141	1111.686279296875	1230.873046875	124.3305358886719	1147.169799804688	1170.383911132812	-117.3870162963867	1321.828125	1131.06103515625	137.5846252441406	1303.61962890625	1179.142456054688	62.16413116455078	1587.822143554688	1182.231079101562	-99.68528747558594	1460.407958984375	1137.890014648438	156.4617309570312	1411.96630859375	1112.181762695312	49.62362289428711	1568.787841796875	1282.842529296875	-46.80323791503906	1545.8427734375	1333.49755859375	-25.79885292053223	1417.596923828125	1409.9931640625	-15.70051765441895	1197.409301757812	1430.690795898438	65.54595184326172	1196.640502929688	1396.647705078125	-54.11248016357422	927.2605590820312	1361.755737304688	16.73600196838379	914.7891845703125	1412.379516601562	-14.57127094268799	1079.189086914062	1431.252197265625	-26.2916088104248	735.8314819335938	1340.28955078125	2.197422504425049	836.5357666015625	1407.057739257812	-58.24145126342773	836.173828125	1369.1826171875	50.64289093017578	1559.81298828125	992.8223266601562	92.53291320800781	1489.504028320312	938.0460815429688	155.6272430419922	1201.08349609375	938.1082153320312	137.9062347412109	1203.132568359375	1033.0712890625	52.85349273681641	938.3649291992188	924.9302978515625	135.849609375	933.2105102539062	920.6896362304688	148.7524566650391	1124.786743164062	921.7723388671875	51.8773307800293	743.9531860351562	948.23291015625	42.19170379638672	826.4957275390625	916.3051147460938	116.8990325927734	828.961669921875	911.448486328125	28.54348373413086	1755.96728515625	1111.041381835938	-186.9114837646484	1793.828857421875	1131.152587890625	-119.3141555786133	1796.773315429688	1020.384338378906	-36.47442626953125	1757.275024414062	1228.461303710938	11.1872386932373	1014.565673828125	1325.854858398438	23.34543228149414	1004.095458984375	963.1314697265625	-64.96694946289062	1070.0693359375	1007.528564453125	-98.24562072753906	1066.938110351562	1272.26220703125	66.35443115234375	513.9744873046875	1293.100463867188	62.72740936279297	663.42724609375	1320.627563476562	284.2789001464844	47.6566276550293	1287.101806640625	218.5500030517578	292.1755981445312	1322.88330078125	52.53532791137695	38.80323791503906	1224.326904296875	135.4626159667969	43.21392059326172	1192.477661132812	158.4812164306641	42.09725952148438	1308.701293945312	355.5371398925781	51.64823150634766	1227.398559570312	-141.1957702636719	551.0777587890625	976.2951049804688	-46.70967864990234	808.5426635742188	956.2832641601562	-253.7254943847656	40.70471572875977	998.1356201171875	-165.5094451904297	417.3876342773438	965.998046875	-457.9713439941406	143.3745574951172	963.7229614257812	-430.8396606445312	112.7964782714844	1022.3095703125	-357.7064514160156	86.83015441894531	930.8427734375	-219.5416107177734	29.04463195800781	1063.533203125	
113	1.12	125.7324905395508	1102.641845703125	1096.740600585938	100.1639404296875	1110.499389648438	1228.841064453125	117.5786819458008	1145.706665039062	1168.366333007812	-123.7700347900391	1320.3203125	1127.926513671875	130.9953765869141	1302.184936523438	1177.17236328125	55.66889190673828	1586.39306640625	1179.829956054688	-106.0304641723633	1458.883911132812	1134.82763671875	150.2000274658203	1410.488403320312	1110.249755859375	42.65438079833984	1567.363891601562	1280.406616210938	-53.98762893676758	1544.410766601562	1330.632080078125	-33.12706756591797	1416.195678710938	1407.216064453125	-23.17815017700195	1196.16943359375	1428.103393554688	58.09258651733398	1195.23876953125	1394.430053710938	-61.18473434448242	925.7022705078125	1359.557861328125	9.349968910217285	913.4351196289062	1410.424072265625	-22.03650665283203	1077.894653320312	1428.878295898438	-33.30984115600586	734.2821044921875	1338.529296875	-5.110385894775391	835.1631469726562	1405.208251953125	-65.43297576904297	834.6981811523438	1367.107055664062	44.92973327636719	1558.314331054688	990.3753662109375	87.06324005126953	1487.984619140625	935.80859375	150.2246704101562	1199.616943359375	936.2553100585938	131.8900299072266	1201.65478515625	1031.13525390625	47.83205032348633	936.7614135742188	922.564697265625	130.8536682128906	931.7400512695312	918.6640625	143.5018005371094	1123.323852539062	919.878662109375	47.107177734375	742.3345336914062	945.8848266601562	37.39969635009766	824.8485107421875	913.9531860351562	112.0609283447266	827.4560546875	909.29931640625	22.45961570739746	1754.5244140625	1108.539672851562	-193.0555114746094	1792.545654296875	1127.80517578125	-124.9650726318359	1795.43359375	1017.269714355469	-42.99934387207031	1755.884155273438	1225.697998046875	4.084999561309814	1013.210510253906	1323.455444335938	17.92299461364746	1002.538146972656	960.7482299804688	-70.66622924804688	1068.376831054688	1004.679748535156	-105.235466003418	1065.357666015625	1269.30126953125	62.13545608520508	512.93408203125	1291.419921875	57.45055389404297	662.44140625	1318.841430664062	284.1758117675781	48.23961639404297	1287.0703125	216.3006439208984	292.4646911621094	1322.28271484375	52.46480178833008	38.62736892700195	1224.228515625	135.4217834472656	43.24689483642578	1192.51171875	158.4463348388672	42.1003303527832	1308.67919921875	355.4913024902344	52.94628524780273	1227.451171875	-145.1525268554688	549.3213500976562	973.5250854492188	-51.15212249755859	806.5634155273438	953.2459716796875	-262.8637390136719	40.67480087280273	995.6734008789062	-170.2902984619141	415.9375305175781	963.4839477539062	-465.0277404785156	145.3340148925781	955.5900268554688	-439.7730407714844	114.7873458862305	1015.200561523438	-364.5884399414062	87.34455108642578	925.7369384765625	-230.6522064208984	28.66838645935059	1062.138305664062	
